PathFileType	4	(X/Y/Z)	 staticP082.trc
DataRate	CameraRate	NumFrames	NumMarkers	Units	OrigDataRate	OrigDataStartFrame	OrigNumFrames
100	100	7	53	M	100	76	100
Frame#	Time	RM1D			RM5D			RM2B			LM1D			LM5D			LM2B			RCAL			LCAL			RLMAL			LLMAL			RMMAL			LMMAL			RSTL			LSTL			RFLE			RFME			LFME			LFLE			RHFIB			LHFIB			RTTUB			LTTUB			RSSH			LSSH			RTL			LTL			RTAP			RTAD			LTAP			LTAD			RTPP			RTPD			LTPP			LTPD			RPSIS			LPSIS			RASIS			LASIS			T10			T2			IJ			SA			RACR			LACR			RHLE			LHLE			RUSP			LUSP			RCB			LCB			IN			LHME			RHME			
		X1	Y1	Z1	X2	Y2	Z2	X3	Y3	Z3	X4	Y4	Z4	X5	Y5	Z5	X6	Y6	Z6	X7	Y7	Z7	X8	Y8	Z8	X9	Y9	Z9	X10	Y10	Z10	X11	Y11	Z11	X12	Y12	Z12	X13	Y13	Z13	X14	Y14	Z14	X15	Y15	Z15	X16	Y16	Z16	X17	Y17	Z17	X18	Y18	Z18	X19	Y19	Z19	X20	Y20	Z20	X21	Y21	Z21	X22	Y22	Z22	X23	Y23	Z23	X24	Y24	Z24	X25	Y25	Z25	X26	Y26	Z26	X27	Y27	Z27	X28	Y28	Z28	X29	Y29	Z29	X30	Y30	Z30	X31	Y31	Z31	X32	Y32	Z32	X33	Y33	Z33	X34	Y34	Z34	X35	Y35	Z35	X36	Y36	Z36	X37	Y37	Z37	X38	Y38	Z38	X39	Y39	Z39	X40	Y40	Z40	X41	Y41	Z41	X42	Y42	Z42	X43	Y43	Z43	X44	Y44	Z44	X45	Y45	Z45	X46	Y46	Z46	X47	Y47	Z47	X48	Y48	Z48	X49	Y49	Z49	X50	Y50	Z50	X51	Y51	Z51	X52	Y52	Z52	X53	Y53	Z53	
76	0.7600	-0.249156	0.039369	-0.202565	-0.282256	0.027707	-0.114431	-0.294588	0.058301	-0.165302	-0.262391	0.041149	-0.280802	-0.286231	0.024263	-0.369274	-0.294185	0.053698	-0.315882	-0.461325	0.049536	-0.174128	-0.467377	0.047731	-0.318360	-0.407968	0.072329	-0.129809	-0.407139	0.069455	-0.356565	-0.391168	0.084038	-0.213379	-0.400454	0.086527	-0.272389	-0.408707	0.047454	-0.208127	-0.418327	0.042847	-0.280154	-0.344507	0.470770	-0.088427	-0.373810	0.485614	-0.211900	-0.382054	0.468775	-0.271133	-0.328800	0.478294	-0.385853	-0.368780	0.422063	-0.075913	-0.364620	0.421711	-0.408001	-0.331970	0.402852	-0.154388	-0.327270	0.403751	-0.330831	-0.340064	0.317737	-0.156401	-0.349650	0.181661	-0.321379	-0.328892	0.700484	-0.044986	-0.324185	0.703342	-0.433148	-0.229466	0.768288	-0.128510	-0.247514	0.655314	-0.140109	-0.227560	0.760350	-0.346573	-0.248893	0.641540	-0.340496	-0.446695	0.691432	-0.135606	-0.442535	0.603252	-0.137157	-0.437425	0.698430	-0.366934	-0.435749	0.607966	-0.362278	-0.459664	1.029417	-0.202446	-0.462076	1.026230	-0.299078	-0.253899	0.982615	-0.116372	-0.258795	0.977122	-0.370344	-0.468333	1.220792	-0.248263	-0.442367	1.467791	-0.259458	-0.291016	1.410612	-0.240206	-0.271000	1.364247	-0.237338	-0.352553	1.464220	-0.045976	-0.314529	1.447152	-0.444262	-0.419607	1.132953	-0.020498	-0.375424	1.115151	-0.463793	-0.333156	0.897526	0.032205	-0.307891	0.885546	-0.506900	-0.248119	1.587386	-0.172099	-0.226428	1.580425	-0.303432	-0.396712	1.541964	-0.260288	-0.386943	1.123269	-0.390852	-0.421051	1.131350	-0.102642	
77	0.7700	-0.249161	0.039385	-0.202559	-0.282252	0.027702	-0.114447	-0.294611	0.058310	-0.165306	-0.262402	0.041150	-0.280798	-0.286223	0.024262	-0.369274	-0.294186	0.053708	-0.315891	-0.461322	0.049547	-0.174129	-0.467383	0.047741	-0.318370	-0.408004	0.072367	-0.129815	-0.407111	0.069462	-0.356558	-0.391114	0.084013	-0.213368	-0.400465	0.086529	-0.272404	-0.408708	0.047463	-0.208119	-0.418331	0.042852	-0.280153	-0.344534	0.470778	-0.088436	-0.373800	0.485609	-0.211883	-0.382054	0.468792	-0.271131	-0.328796	0.478291	-0.385823	-0.368807	0.422056	-0.075902	-0.364605	0.421716	-0.407984	-0.331984	0.402868	-0.154368	-0.327232	0.403768	-0.330788	-0.340022	0.317723	-0.156372	-0.349690	0.181637	-0.321395	-0.328937	0.700518	-0.045002	-0.323848	0.703358	-0.433171	-0.229435	0.768298	-0.128493	-0.247502	0.655326	-0.140108	-0.227578	0.760362	-0.346543	-0.248867	0.641540	-0.340484	-0.446695	0.691439	-0.135608	-0.442533	0.603249	-0.137169	-0.437412	0.698430	-0.366952	-0.435747	0.607983	-0.362291	-0.459679	1.029417	-0.202452	-0.462074	1.026231	-0.299087	-0.253856	0.982639	-0.116350	-0.258779	0.977161	-0.370310	-0.468342	1.220809	-0.248307	-0.442317	1.467814	-0.259510	-0.290984	1.410592	-0.240215	-0.271025	1.364194	-0.237365	-0.352573	1.464255	-0.046026	-0.314430	1.447182	-0.444269	-0.419667	1.133001	-0.020451	-0.375509	1.115202	-0.463809	-0.333218	0.897581	0.032405	-0.308028	0.885605	-0.506844	-0.248254	1.587481	-0.171871	-0.226226	1.580495	-0.303172	-0.396654	1.541954	-0.260387	-0.387034	1.123331	-0.390873	-0.421076	1.131364	-0.102596	
78	0.7800	-0.249133	0.039402	-0.202577	-0.282248	0.027699	-0.114445	-0.294610	0.058314	-0.165304	-0.262383	0.041167	-0.280794	-0.286231	0.024278	-0.369282	-0.294195	0.053711	-0.315886	-0.461303	0.049546	-0.174131	-0.467383	0.047746	-0.318374	-0.408031	0.072377	-0.129805	-0.407120	0.069474	-0.356573	-0.391147	0.084043	-0.213381	-0.400447	0.086528	-0.272393	-0.408713	0.047492	-0.208109	-0.418323	0.042854	-0.280148	-0.344544	0.470771	-0.088432	-0.373805	0.485615	-0.211876	-0.382054	0.468809	-0.271114	-0.328758	0.478311	-0.385800	-0.368788	0.422078	-0.075909	-0.364590	0.421716	-0.407984	-0.332008	0.402867	-0.154356	-0.327261	0.403766	-0.330795	-0.340085	0.317727	-0.156375	-0.349672	0.181649	-0.321368	-0.328873	0.700513	-0.044982	-0.324121	0.703370	-0.433129	-0.229477	0.768320	-0.128504	-0.247533	0.655332	-0.140090	-0.227499	0.760395	-0.346512	-0.248831	0.641576	-0.340448	-0.446716	0.691432	-0.135605	-0.442536	0.603252	-0.137150	-0.437382	0.698420	-0.366965	-0.435736	0.607985	-0.362290	-0.459694	1.029416	-0.202453	-0.462091	1.026220	-0.299099	-0.253926	0.982630	-0.116348	-0.258814	0.977172	-0.370294	-0.468345	1.220853	-0.248317	-0.442289	1.467836	-0.259570	-0.290958	1.410564	-0.240207	-0.271010	1.364190	-0.237360	-0.352558	1.464255	-0.046050	-0.314266	1.447171	-0.444272	-0.419694	1.133035	-0.020435	-0.375601	1.115244	-0.463807	-0.333267	0.897599	0.032558	-0.308107	0.885602	-0.506762	-0.248366	1.587590	-0.171731	-0.226000	1.580567	-0.302932	-0.396590	1.541921	-0.260479	-0.387128	1.123358	-0.390890	-0.421092	1.131346	-0.102554	
79	0.7900	-0.249136	0.039413	-0.202557	-0.282266	0.027723	-0.114436	-0.294594	0.058319	-0.165294	-0.262369	0.041161	-0.280796	-0.286239	0.024274	-0.369268	-0.294193	0.053724	-0.315872	-0.461282	0.049515	-0.174116	-0.467395	0.047759	-0.318363	-0.407981	0.072347	-0.129792	-0.407125	0.069466	-0.356555	-0.391130	0.084014	-0.213368	-0.400469	0.086538	-0.272383	-0.408714	0.047483	-0.208103	-0.418312	0.042818	-0.280182	-0.344550	0.470796	-0.088409	-0.373828	0.485611	-0.211886	-0.382005	0.468816	-0.271095	-0.328770	0.478299	-0.385792	-0.368814	0.422064	-0.075900	-0.364562	0.421703	-0.407963	-0.331951	0.402890	-0.154350	-0.327230	0.403760	-0.330765	-0.340092	0.317696	-0.156386	-0.349647	0.181663	-0.321361	-0.328916	0.700517	-0.044975	-0.323741	0.703342	-0.433151	-0.229428	0.768332	-0.128435	-0.247537	0.655335	-0.140071	-0.227496	0.760405	-0.346492	-0.248824	0.641565	-0.340401	-0.446719	0.691420	-0.135592	-0.442542	0.603256	-0.137146	-0.437355	0.698411	-0.366950	-0.435695	0.607981	-0.362286	-0.459703	1.029415	-0.202441	-0.462097	1.026225	-0.299091	-0.253942	0.982617	-0.116315	-0.258819	0.977164	-0.370288	-0.468330	1.220860	-0.248329	-0.442213	1.467841	-0.259597	-0.290965	1.410529	-0.240233	-0.271041	1.364152	-0.237375	-0.352590	1.464265	-0.046051	-0.314199	1.447170	-0.444318	-0.419708	1.133050	-0.020411	-0.375656	1.115246	-0.463797	-0.333323	0.897650	0.032698	-0.308235	0.885607	-0.506642	-0.248422	1.587647	-0.171613	-0.225855	1.580634	-0.302762	-0.396535	1.541873	-0.260555	-0.387194	1.123397	-0.390897	-0.421094	1.131336	-0.102515	
80	0.8000	-0.249155	0.039410	-0.202561	-0.282263	0.027705	-0.114419	-0.294626	0.058321	-0.165294	-0.262387	0.041166	-0.280773	-0.286243	0.024266	-0.369268	-0.294202	0.053694	-0.315874	-0.461246	0.049492	-0.174115	-0.467372	0.047739	-0.318357	-0.408004	0.072327	-0.129785	-0.407108	0.069464	-0.356548	-0.391096	0.083987	-0.213346	-0.400470	0.086528	-0.272379	-0.408701	0.047460	-0.208111	-0.418299	0.042818	-0.280141	-0.344582	0.470802	-0.088385	-0.373820	0.485620	-0.211876	-0.382007	0.468817	-0.271080	-0.328730	0.478307	-0.385763	-0.368831	0.422072	-0.075886	-0.364520	0.421714	-0.407950	-0.332021	0.402857	-0.154350	-0.327204	0.403785	-0.330766	-0.340098	0.317744	-0.156376	-0.349650	0.181671	-0.321364	-0.329006	0.700496	-0.044974	-0.324020	0.703358	-0.433071	-0.229510	0.768334	-0.128424	-0.247533	0.655353	-0.140059	-0.227440	0.760421	-0.346447	-0.248801	0.641561	-0.340345	-0.446718	0.691419	-0.135580	-0.442544	0.603230	-0.137144	-0.437326	0.698388	-0.366939	-0.435654	0.607962	-0.362265	-0.459700	1.029405	-0.202429	-0.462097	1.026219	-0.299088	-0.253999	0.982599	-0.116319	-0.258798	0.977183	-0.370236	-0.468305	1.220865	-0.248334	-0.442135	1.467833	-0.259621	-0.290926	1.410467	-0.240201	-0.270963	1.364145	-0.237324	-0.352587	1.464292	-0.046065	-0.313985	1.447141	-0.444264	-0.419751	1.133053	-0.020348	-0.375700	1.115237	-0.463767	-0.333408	0.897684	0.032794	-0.308325	0.885515	-0.506542	-0.248493	1.587708	-0.171494	-0.225761	1.580706	-0.302651	-0.396475	1.541815	-0.260646	-0.387249	1.123418	-0.390886	-0.421081	1.131341	-0.102502	
81	0.8100	-0.249141	0.039404	-0.202557	-0.282269	0.027705	-0.114414	-0.294628	0.058302	-0.165298	-0.262388	0.041157	-0.280782	-0.286243	0.024273	-0.369241	-0.294219	0.053707	-0.315877	-0.461259	0.049490	-0.174110	-0.467385	0.047730	-0.318339	-0.408011	0.072335	-0.129809	-0.407095	0.069445	-0.356540	-0.391150	0.084004	-0.213333	-0.400442	0.086475	-0.272377	-0.408707	0.047457	-0.208091	-0.418306	0.042817	-0.280130	-0.344562	0.470766	-0.088395	-0.373803	0.485628	-0.211881	-0.382015	0.468826	-0.271079	-0.328701	0.478272	-0.385746	-0.368824	0.422078	-0.075883	-0.364521	0.421712	-0.407945	-0.332041	0.402877	-0.154363	-0.327217	0.403754	-0.330752	-0.340119	0.317707	-0.156343	-0.349650	0.181637	-0.321349	-0.328947	0.700504	-0.044915	-0.323631	0.703356	-0.433103	-0.229438	0.768325	-0.128404	-0.247567	0.655312	-0.140034	-0.227461	0.760378	-0.346411	-0.248790	0.641585	-0.340305	-0.446720	0.691391	-0.135574	-0.442548	0.603236	-0.137142	-0.437277	0.698365	-0.366935	-0.435622	0.607960	-0.362278	-0.459695	1.029394	-0.202419	-0.462098	1.026210	-0.299084	-0.254001	0.982609	-0.116305	-0.258778	0.977170	-0.370230	-0.468282	1.220865	-0.248354	-0.442085	1.467849	-0.259655	-0.290930	1.410464	-0.240219	-0.270967	1.364090	-0.237344	-0.352596	1.464298	-0.046090	-0.313886	1.447112	-0.444286	-0.419776	1.133070	-0.020363	-0.375733	1.115212	-0.463727	-0.333477	0.897705	0.032868	-0.308459	0.885460	-0.506419	-0.248524	1.587756	-0.171407	-0.225637	1.580771	-0.302534	-0.396432	1.541769	-0.260705	-0.387296	1.123412	-0.390842	-0.421073	1.131355	-0.102506	
82	0.8200	-0.249160	0.039387	-0.202547	-0.282255	0.027706	-0.114425	-0.294607	0.058299	-0.165307	-0.262408	0.041133	-0.280778	-0.286252	0.024257	-0.369265	-0.294206	0.053677	-0.315872	-0.461252	0.049462	-0.174113	-0.467374	0.047724	-0.318356	-0.408002	0.072325	-0.129792	-0.407095	0.069448	-0.356551	-0.391112	0.083980	-0.213357	-0.400438	0.086474	-0.272365	-0.408727	0.047471	-0.208101	-0.418307	0.042826	-0.280143	-0.344608	0.470776	-0.088385	-0.373809	0.485608	-0.211877	-0.381988	0.468807	-0.271077	-0.328674	0.478280	-0.385745	-0.368861	0.422062	-0.075880	-0.364466	0.421682	-0.407925	-0.332021	0.402880	-0.154337	-0.327157	0.403756	-0.330720	-0.340145	0.317735	-0.156361	-0.349620	0.181655	-0.321346	-0.329022	0.700516	-0.044935	-0.323589	0.703321	-0.433061	-0.229518	0.768290	-0.128421	-0.247571	0.655312	-0.139998	-0.227423	0.760414	-0.346403	-0.248795	0.641577	-0.340269	-0.446736	0.691386	-0.135570	-0.442547	0.603228	-0.137147	-0.437262	0.698370	-0.366942	-0.435596	0.607943	-0.362285	-0.459691	1.029401	-0.202427	-0.462088	1.026203	-0.299093	-0.253935	0.982627	-0.116313	-0.258777	0.977164	-0.370232	-0.468274	1.220887	-0.248365	-0.442047	1.467839	-0.259685	-0.290870	1.410469	-0.240206	-0.270956	1.364062	-0.237353	-0.352590	1.464292	-0.046102	-0.313829	1.447078	-0.444308	-0.419841	1.133102	-0.020398	-0.375761	1.115183	-0.463681	-0.333536	0.897715	0.032900	-0.308639	0.885420	-0.506343	-0.248600	1.587818	-0.171321	-0.225588	1.580823	-0.302465	-0.396385	1.541750	-0.260745	-0.387317	1.123406	-0.390779	-0.421083	1.131374	-0.102530	
